<?xml version="1.0" standalone="no"?>
<!DOCTYPE svg PUBLIC "-//W3C//DTD SVG 20010904//EN"
 "http://www.w3.org/TR/2001/REC-SVG-20010904/DTD/svg10.dtd">
<svg version="1.0" xmlns="http://www.w3.org/2000/svg"
 width="512.000000pt" height="512.000000pt" viewBox="0 0 512.000000 512.000000"
 preserveAspectRatio="xMidYMid meet">
<metadata>
Created by potrace 1.14, written by Peter Selinger 2001-2017
</metadata>
<g transform="translate(0.000000,512.000000) scale(0.100000,-0.100000)"
fill="#000000" stroke="none">
<path d="M2449 5105 c-136 -37 -277 -168 -310 -287 -11 -42 -26 -53 -84 -62
-68 -11 -215 -53 -330 -96 -318 -117 -617 -310 -865 -560 -100 -101 -290 -333
-290 -355 0 -15 510 -309 519 -299 4 5 29 37 54 70 113 149 293 311 467 419
110 67 311 165 341 165 5 0 9 -175 9 -395 l0 -395 600 0 600 0 0 395 c0 217 3
395 6 395 3 0 42 -15 88 -34 280 -116 538 -315 727 -561 l56 -73 259 150 c142
82 260 151 261 152 5 5 -92 143 -151 216 -95 116 -257 272 -380 364 -272 205
-554 340 -883 424 l-144 37 -22 55 c-49 120 -143 216 -256 261 -67 26 -202 33
-272 14z"/>
<path d="M4450 3329 c-188 -110 -255 -153 -254 -166 1 -10 20 -66 43 -124 76
-199 112 -381 116 -594 2 -139 -14 -337 -30 -353 -2 -2 -153 82 -335 187 -182
105 -336 193 -342 194 -12 2 -35 -37 -378 -635 -162 -282 -225 -400 -217 -406
10 -8 205 -121 387 -224 19 -11 64 -37 100 -58 36 -21 90 -51 120 -68 30 -17
56 -34 57 -39 4 -12 -171 -139 -268 -195 -146 -83 -404 -180 -534 -201 -50 -8
-109 -18 -130 -22 -11 -2 -32 -4 -47 -4 l-28 -1 0 -310 0 -309 68 5 c37 2 78
7 92 9 14 2 57 9 95 15 370 61 738 226 1065 479 92 71 303 273 334 319 18 27
20 28 105 26 258 -7 461 188 463 443 0 95 -27 189 -76 257 l-34 48 15 46 c132
417 158 829 78 1227 -38 189 -111 408 -179 541 l-31 61 -255 -148z"/>
<path d="M376 3398 c-18 -40 -38 -89 -45 -108 -7 -19 -17 -44 -22 -55 -27 -62
-90 -288 -105 -375 -3 -14 -9 -50 -15 -80 -17 -98 -24 -191 -24 -365 0 -188 6
-278 29 -405 9 -47 18 -98 21 -115 3 -16 8 -37 11 -45 3 -8 8 -26 10 -39 3
-13 18 -66 35 -117 l30 -94 -24 -33 c-61 -80 -88 -163 -88 -269 0 -165 88
-314 232 -392 71 -39 137 -55 230 -54 78 1 80 0 109 -32 424 -475 976 -760
1578 -816 l72 -6 0 311 c0 289 -1 311 -17 312 -10 0 -27 2 -38 4 -11 2 -40 6
-65 9 -151 17 -420 106 -576 192 -75 40 -267 170 -291 196 l-21 23 330 190
c181 105 334 193 340 197 11 6 -99 203 -324 581 -32 54 -58 99 -58 102 0 2
-29 52 -64 112 -34 59 -82 140 -104 180 l-42 71 -342 -197 c-189 -109 -344
-197 -345 -197 -2 2 -13 59 -19 101 -3 17 -6 100 -8 185 -4 138 -1 188 19 335
10 74 63 260 100 350 20 50 38 98 38 109 2 14 -36 41 -158 111 -88 51 -200
116 -248 144 -49 28 -93 51 -98 51 -6 0 -25 -33 -43 -72z"/>
</g>
</svg>
